<svg xmlns="http://www.w3.org/2000/svg" id="Layer_1" data-name="Layer 1" viewBox="0 0 426.8 26.3"><defs><style>      .cls-1 {        fill: #00a5b5;      }      .cls-1, .cls-2 {        stroke-width: 0px;      }      .cls-2 {        fill: #e1b77e;      }    </style></defs><g><path class="cls-2" d="M24.4,13.2c0,1.2-.2,2.4-.5,3.5-.3,1.1-.8,2.1-1.4,3-.6.9-1.3,1.8-2.1,2.5s-1.7,1.4-2.7,1.9-2,.9-3.2,1.2c-1.1.3-2.3.4-3.5.4H0V.6h11.1c1.2,0,2.3.1,3.5.4,1.1.3,2.2.7,3.2,1.2,1,.5,1.9,1.2,2.7,1.9.8.7,1.5,1.6,2.1,2.5.6.9,1,1.9,1.4,3,.3,1.1.5,2.3.5,3.5ZM17.4,13.2c0-1.4-.2-2.7-.5-3.9-.3-1.2-.8-2.3-1.5-3.2-.7-.9-1.6-1.7-2.7-2.2-1.1-.5-2.4-.8-3.9-.8h-1.8v20.3h1.8c1.5,0,2.8-.3,3.8-.8,1.1-.6,2-1.3,2.7-2.2.7-.9,1.2-2,1.6-3.2.3-1.2.5-2.5.5-3.9Z"></path><path class="cls-2" d="M50.7,25.8h-6.9V.6h12.4c1.2,0,2.3.1,3.4.4,1.1.3,2,.7,2.9,1.3.8.6,1.5,1.3,2,2.3.5.9.7,2.1.7,3.4s-.2,2-.7,2.9c-.4.9-1,1.7-1.7,2.4-.7.7-1.6,1.3-2.5,1.8s-1.9.8-2.9.9c.5.8.9,1.5,1.4,2.2.5.7,1,1.3,1.5,1.9.5.6,1,1.2,1.5,1.7.5.5,1,1,1.4,1.4,1.1,1,2.1,1.8,3.2,2.5h-8.6c-.7-.7-1.4-1.5-2-2.4-.5-.8-1.1-1.8-1.6-2.9-.5-1.2-1-2.5-1.2-4.1h-2.1v9.4ZM58.1,8c0-1.7-.4-2.9-1.2-3.7-.8-.8-2.1-1.2-3.7-1.2h-2.4v10.9h2.4c.9,0,1.6-.2,2.2-.5.6-.3,1.1-.8,1.5-1.3.4-.6.7-1.2.9-1.9.2-.7.3-1.5.3-2.3Z"></path></g><path class="cls-2" d="M89.6,13.2c0,.4,0,.9-.2,1.2-.2.4-.4.7-.7,1-.3.3-.6.5-1,.7-.4.2-.8.3-1.2.3s-.9,0-1.2-.3c-.4-.2-.7-.4-1-.7-.3-.3-.5-.6-.7-1-.2-.4-.2-.8-.2-1.2s0-.8.2-1.2c.2-.4.4-.7.7-1,.3-.3.6-.5,1-.7.4-.2.8-.3,1.2-.3s.9,0,1.2.3c.4.2.7.4,1,.7.3.3.5.6.7,1,.2.4.2.8.2,1.2Z"></path><path class="cls-2" d="M267.7,13c0,.4,0,.9-.2,1.2-.2.4-.4.7-.7,1-.3.3-.6.5-1,.7-.4.2-.8.3-1.2.3s-.9,0-1.2-.3c-.4-.2-.7-.4-1-.7-.3-.3-.5-.6-.7-1-.2-.4-.2-.8-.2-1.2s0-.8.2-1.2c.2-.4.4-.7.7-1,.3-.3.6-.5,1-.7.4-.2.8-.3,1.2-.3s.9,0,1.2.3c.4.2.7.4,1,.7.3.3.5.6.7,1,.2.4.2.8.2,1.2Z"></path><g><path class="cls-1" d="M300.7,26.3c-1.3,0-2.5-.2-3.7-.5-1.2-.3-2.3-.7-3.3-1.3-1-.6-2-1.2-2.8-2-.8-.8-1.6-1.7-2.1-2.6-.6-1-1-2-1.4-3.2-.3-1.1-.5-2.3-.5-3.6s.2-2.4.5-3.6c.3-1.1.8-2.2,1.4-3.2.6-1,1.3-1.9,2.1-2.6.8-.8,1.8-1.5,2.8-2,1-.6,2.1-1,3.3-1.3,1.2-.3,2.4-.5,3.7-.5s2.5.1,3.7.4c1.2.3,2.3.7,3.3,1.3,1,.6,1.9,1.3,2.7,2.1.8.9,1.4,1.9,1.9,3l-3.1,1.3c-.2-.8-.6-1.8-1-2.4-.4-.7-.9-1.2-1.5-1.7-.6-.5-1.2-.8-1.9-1.1s-1.5-.4-2.4-.4-1.8.2-2.5.5c-.8.3-1.5.7-2.1,1.2-.6.5-1.2,1-1.7,1.7-.5.7-.8,1.4-1.1,2.2s-.5,1.8-.6,2.6c-.2.8-.2,1.7-.2,2.5,0,1.3.1,2.6.4,3.8.3,1.3.8,2.2,1.4,3.2.7,1,1.5,1.8,2.5,2.4,1,.6,2.3,1.2,3.8,1.2s1.6-.3,2-.7c.5-.4.7-1,.7-1.9v-8h7.3v9.5c-1.9,1.5-5.2,3.5-11.7,3.5Z"></path><path class="cls-1" d="M354.2,13.2c0,2-.3,3.9-1,5.5-.7,1.6-1.7,3-2.9,4.1-1.2,1.1-2.7,2-4.4,2.6-1.7.6-3.5.9-5.5.9s-3.8-.3-5.5-.9c-1.7-.6-3.2-1.5-4.4-2.6-1.2-1.1-2.2-2.5-2.9-4.1-.7-1.6-1-3.5-1-5.5s.3-3.9,1-5.5c.7-1.6,1.7-3,2.9-4.1,1.2-1.1,2.7-2,4.4-2.6,1.7-.6,3.5-.9,5.5-.9s3.8.3,5.5.9c1.7.6,3.1,1.5,4.4,2.6,1.2,1.1,2.2,2.5,2.9,4.1.7,1.6,1,3.5,1,5.5ZM347.2,13.2c0-.8,0-1.6-.1-2.4s-.2-1.6-.4-2.3c-.2-.8-.4-1.5-.8-2.1-.3-.7-.7-1.2-1.2-1.7-.5-.5-1.1-.9-1.8-1.2s-1.5-.4-2.5-.4-1.8.1-2.5.4c-.7.3-1.3.7-1.8,1.2-.5.5-.9,1.1-1.2,1.7-.3.7-.6,1.4-.7,2.1-.2.8-.3,1.5-.4,2.3,0,.8-.1,1.6-.1,2.4s0,1.6.1,2.4.2,1.6.4,2.3c.2.8.4,1.5.8,2.1.3.7.7,1.2,1.2,1.7.5.5,1.1.9,1.8,1.2.7.3,1.5.4,2.5.4s1.7-.1,2.4-.4c.7-.3,1.3-.7,1.8-1.2.5-.5.9-1.1,1.2-1.8.3-.7.6-1.4.8-2.1s.3-1.5.4-2.3c0-.8.1-1.6.1-2.3Z"></path><path class="cls-1" d="M387.9,25.8h-18.1V.6h6.9v22h11.1v3.2Z"></path><path class="cls-1" d="M426.8,13.2c0,1.2-.2,2.4-.5,3.5-.3,1.1-.8,2.1-1.4,3-.6.9-1.3,1.8-2.1,2.5s-1.7,1.4-2.7,1.9c-1,.5-2,.9-3.2,1.2-1.1.3-2.3.4-3.5.4h-11.1V.6h11.1c1.2,0,2.3.1,3.5.4,1.1.3,2.2.7,3.2,1.2,1,.5,1.9,1.2,2.7,1.9.8.7,1.5,1.6,2.1,2.5.6.9,1,1.9,1.4,3,.3,1.1.5,2.3.5,3.5ZM419.8,13.2c0-1.4-.2-2.7-.5-3.9-.3-1.2-.8-2.3-1.5-3.2-.7-.9-1.6-1.7-2.7-2.2-1.1-.5-2.4-.8-3.9-.8h-1.8v20.3h1.8c1.5,0,2.8-.3,3.8-.8,1.1-.6,2-1.3,2.7-2.2s1.2-2,1.6-3.2c.3-1.2.5-2.5.5-3.9Z"></path></g><g><path class="cls-1" d="M128.4,25.8h-18.1V.6h6.9v22h11.1v3.2Z"></path><path class="cls-1" d="M157.8,25.8h-6.9V.6h6.9v25.2Z"></path><path class="cls-1" d="M235.8,16.8v-4.9c0-.6,0-1.2,0-1.9,0-.7-.1-1.4-.3-2-.1-.7-.3-1.3-.6-1.9-.2-.6-.6-1.1-1-1.6s-.9-.8-1.5-1.1c-.6-.3-1.1-.4-1.9-.4-.8,0-1.4.1-1.9.4-.6.3-1.1.6-1.5,1.1s-.7,1-1,1.6c-.2.6-.4,1.2-.6,1.9-.1.7-.2,1.3-.3,2,0,.7,0,1.3,0,1.9v4.9h10.5ZM225.2,19.6v6.1h-6.9v-12.8c0-1.8.3-3.5.9-5.1.6-1.6,1.4-2.9,2.5-4.1,1.1-1.2,2.3-2.1,3.8-2.7,1.5-.7,3.2-1,5-1,1.8,0,3.5.3,5,1,1.5.7,2.8,1.6,3.8,2.7,1.1,1.2,1.9,2.5,2.5,4.1s.9,3.3.9,5.1v12.8h-6.9v-6.1s-10.5,0-10.5,0Z"></path><path class="cls-1" d="M187.3,3.8c-.5.2-.9.6-1.1,1-.3.4-.4,1-.4,1.6s0,.9.3,1.3c.2.3.5.6.8.9.3.2.7.4,1.1.6.4.2.9.3,1.3.4s4,1,4.7,1.2,1.5.5,2.3.8,1.5.6,2.1,1c.7.4,1.3.8,1.8,1.4.5.5.9,1.1,1.2,1.8.3.7.5,1.5.5,2.4s-.1,2-.4,2.9c-.3.8-.7,1.5-1.2,2.1-.5.6-1.1,1.1-1.8,1.5-.7.4-1.4.7-2.2,1-.8.2-1.6.4-2.5.5-.9.1-1.9.2-3,.2-4,0-7.9-1.5-11.1-4.9l3.3-3.3c1.8,3.6,4.3,5.2,7.8,5.2s3.4-.4,3.9-.6c.5-.3.9-.6,1.2-1,.3-.4.4-1,.4-1.6s-.1-.9-.3-1.3c-.2-.3-.5-.7-.9-.9-.4-.3-.8-.5-1.2-.6-.5-.2-.9-.3-1.4-.4s-4-1-4.7-1.3c-.7-.2-1.5-.5-2.2-.8-.7-.3-1.4-.6-2.1-1-.6-.4-1.2-.8-1.7-1.3-.5-.5-.9-1.1-1.2-1.8-.3-.7-.4-1.5-.4-2.3s.1-2,.4-2.8c.3-.8.6-1.5,1.1-2.1.5-.6,1-1.1,1.7-1.5.7-.4,1.4-.7,2.1-1,.8-.2,1.6-.4,2.5-.5.9-.1,1.8-.2,2.7-.2,4.4,0,8,1.7,10.7,4.9l-3.1,3.1c-2.3-4.2-5.1-5-7.6-5s-3.5.6-3.5.6Z"></path></g></svg>