<svg xmlns="http://www.w3.org/2000/svg" id="Layer_2" viewBox="0 0 603.72 265.74"><defs><style>.cls-1{fill:#e1b77e;}.cls-2{fill:#fefefe;}</style></defs><g id="Layer_1-2"><path class="cls-1" d="m118.9,253.24h5.48c1.54,0,2.76.46,3.55,1.23.65.67,1.02,1.58,1.02,2.65v.03c0,2.02-1.21,3.23-2.93,3.72l3.32,4.65h-2.55l-3.02-4.28h-2.7v4.28h-2.16v-12.29Zm5.32,6.09c1.54,0,2.53-.81,2.53-2.05v-.03c0-1.32-.95-2.04-2.55-2.04h-3.14v4.13h3.16Z"></path><path class="cls-1" d="m137.55,253.24h9.11v1.93h-6.95v3.19h6.16v1.93h-6.16v3.3h7.04v1.93h-9.2v-12.29Z"></path><path class="cls-1" d="m155.26,253.24h2.16v10.32h6.46v1.97h-8.62v-12.29Z"></path><path class="cls-1" d="m176.44,253.15h2l5.41,12.38h-2.28l-1.25-2.97h-5.81l-1.27,2.97h-2.21l5.41-12.38Zm3.09,7.5l-2.12-4.91-2.11,4.91h4.23Z"></path><path class="cls-1" d="m193.35,255.24h-3.9v-2h9.97v2h-3.9v10.29h-2.18v-10.29Z"></path><path class="cls-1" d="m207.78,253.24h2.16v12.29h-2.16v-12.29Z"></path><path class="cls-1" d="m218.64,259.42v-.03c0-3.46,2.67-6.36,6.44-6.36s6.41,2.86,6.41,6.32v.03c0,3.46-2.67,6.36-6.44,6.36s-6.41-2.86-6.41-6.32Zm10.59,0v-.03c0-2.39-1.74-4.37-4.18-4.37s-4.14,1.95-4.14,4.34v.03c0,2.39,1.74,4.37,4.18,4.37s4.14-1.95,4.14-4.34Z"></path><path class="cls-1" d="m240.05,253.24h2l6.58,8.5v-8.5h2.12v12.29h-1.81l-6.78-8.74v8.74h-2.12v-12.29Z"></path><path class="cls-1" d="m259.05,263.73l1.3-1.54c1.18,1.02,2.35,1.6,3.88,1.6,1.33,0,2.18-.62,2.18-1.54v-.04c0-.88-.49-1.35-2.77-1.88-2.62-.63-4.09-1.4-4.09-3.67v-.03c0-2.11,1.75-3.57,4.2-3.57,1.79,0,3.21.55,4.46,1.55l-1.16,1.63c-1.11-.82-2.21-1.26-3.33-1.26-1.27,0-2,.65-2,1.46v.04c0,.95.56,1.37,2.91,1.93,2.6.63,3.95,1.56,3.95,3.6v.03c0,2.3-1.81,3.67-4.39,3.67-1.88,0-3.65-.65-5.13-1.97Z"></path><path class="cls-1" d="m277.06,253.24h2.16v5.11h5.86v-5.11h2.16v12.29h-2.16v-5.18h-5.86v5.18h-2.16v-12.29Z"></path><path class="cls-1" d="m296.48,253.24h2.16v12.29h-2.16v-12.29Z"></path><path class="cls-1" d="m307.88,253.24h4.85c2.86,0,4.67,1.63,4.67,4.11v.03c0,2.76-2.21,4.19-4.92,4.19h-2.44v3.95h-2.16v-12.29Zm4.67,6.39c1.63,0,2.65-.91,2.65-2.2v-.03c0-1.44-1.04-2.19-2.65-2.19h-2.51v4.42h2.51Z"></path><path class="cls-1" d="m339.81,255.24h-3.9v-2h9.97v2h-3.9v10.29h-2.18v-10.29Z"></path><path class="cls-1" d="m354.12,253.24h2.16v5.11h5.86v-5.11h2.16v12.29h-2.16v-5.18h-5.86v5.18h-2.16v-12.29Z"></path><path class="cls-1" d="m373.41,253.24h9.11v1.93h-6.95v3.19h6.16v1.93h-6.16v3.3h7.04v1.93h-9.2v-12.29Z"></path><path class="cls-1" d="m391.13,253.24h5.48c1.54,0,2.76.46,3.55,1.23.65.67,1.02,1.58,1.02,2.65v.03c0,2.02-1.21,3.23-2.93,3.72l3.32,4.65h-2.55l-3.02-4.28h-2.7v4.28h-2.16v-12.29Zm5.32,6.09c1.54,0,2.53-.81,2.53-2.05v-.03c0-1.32-.95-2.04-2.55-2.04h-3.14v4.13h3.16Z"></path><path class="cls-1" d="m414.13,253.15h2l5.41,12.38h-2.28l-1.25-2.97h-5.81l-1.27,2.97h-2.21l5.41-12.38Zm3.09,7.5l-2.12-4.91-2.11,4.91h4.23Z"></path><path class="cls-1" d="m429.59,253.24h4.85c2.86,0,4.67,1.63,4.67,4.11v.03c0,2.76-2.21,4.19-4.92,4.19h-2.44v3.95h-2.16v-12.29Zm4.67,6.39c1.63,0,2.65-.91,2.65-2.2v-.03c0-1.44-1.04-2.19-2.65-2.19h-2.51v4.42h2.51Z"></path><path class="cls-1" d="m447.4,253.24h2.16v12.29h-2.16v-12.29Z"></path><path class="cls-1" d="m457.97,263.73l1.3-1.54c1.18,1.02,2.35,1.6,3.88,1.6,1.33,0,2.18-.62,2.18-1.54v-.04c0-.88-.49-1.35-2.77-1.88-2.62-.63-4.09-1.4-4.09-3.67v-.03c0-2.11,1.75-3.57,4.2-3.57,1.79,0,3.21.55,4.46,1.55l-1.16,1.63c-1.11-.82-2.21-1.26-3.33-1.26-1.27,0-2,.65-2,1.46v.04c0,.95.56,1.37,2.91,1.93,2.6.63,3.95,1.56,3.95,3.6v.03c0,2.3-1.81,3.67-4.39,3.67-1.88,0-3.65-.65-5.13-1.97Z"></path><path class="cls-1" d="m478.75,255.24h-3.9v-2h9.97v2h-3.9v10.29h-2.18v-10.29Z"></path><path class="cls-1" d="m34.5,199.8c0,1.73-.23,3.37-.69,4.93-.46,1.56-1.11,3-1.94,4.31-.83,1.32-1.83,2.51-2.98,3.57s-2.43,1.97-3.82,2.71c-1.39.74-2.88,1.31-4.47,1.72-1.59.4-3.23.6-4.91.6H0v-35.59h15.69c1.68,0,3.31.2,4.89.59,1.58.4,3.07.96,4.46,1.69,1.39.73,2.67,1.63,3.83,2.68,1.16,1.06,2.16,2.24,2.99,3.55.83,1.31,1.48,2.74,1.94,4.3.46,1.56.69,3.2.69,4.93Zm-9.96,0c0-1.93-.23-3.76-.7-5.5-.47-1.74-1.2-3.27-2.19-4.58-.99-1.32-2.25-2.36-3.77-3.14-1.52-.77-3.35-1.16-5.47-1.16h-2.59v28.77h2.59c2.09,0,3.9-.39,5.43-1.17,1.52-.78,2.78-1.84,3.78-3.16,1-1.33,1.73-2.85,2.21-4.58.48-1.73.72-3.55.72-5.46Z"></path><path class="cls-1" d="m71.78,217.64h-9.81v-35.59h17.5c1.65,0,3.24.19,4.77.58,1.53.39,2.89,1,4.07,1.83,1.18.83,2.12,1.91,2.82,3.23.7,1.32,1.05,2.92,1.05,4.8,0,1.47-.31,2.85-.93,4.14-.62,1.29-1.44,2.45-2.47,3.46-1.03,1.01-2.21,1.85-3.55,2.52-1.33.67-2.72,1.11-4.15,1.32.64,1.09,1.31,2.12,2.01,3.09.7.97,1.41,1.88,2.12,2.73.72.85,1.43,1.63,2.14,2.35.71.72,1.38,1.37,2.03,1.97,1.52,1.38,3.02,2.58,4.5,3.58h-12.23c-.99-.94-1.93-2.07-2.82-3.39-.76-1.12-1.52-2.51-2.29-4.17-.77-1.66-1.36-3.57-1.77-5.75h-2.99v13.3Zm10.43-25.16c0-2.39-.58-4.14-1.74-5.26-1.16-1.12-2.9-1.68-5.23-1.68h-3.46v15.45h3.46c1.24,0,2.29-.23,3.18-.7.88-.47,1.6-1.1,2.16-1.88.56-.78.97-1.69,1.24-2.71.26-1.02.4-2.09.4-3.21Z"></path><path class="cls-1" d="m126.76,199.84c0,.63-.12,1.22-.35,1.77-.23.55-.55,1.03-.96,1.43-.41.4-.89.72-1.43.96-.54.24-1.13.36-1.76.36s-1.21-.12-1.76-.36c-.54-.24-1.02-.56-1.43-.96-.41-.4-.73-.88-.96-1.43-.23-.55-.35-1.14-.35-1.77s.11-1.19.35-1.74c.23-.55.55-1.03.96-1.43.41-.4.89-.72,1.43-.96.54-.24,1.13-.36,1.76-.36s1.21.12,1.76.36c.54.24,1.02.56,1.43.96.41.4.73.88.96,1.43.23.55.35,1.13.35,1.74Z"></path><path class="cls-1" d="m378.58,199.51c0,.63-.12,1.22-.35,1.77-.23.55-.55,1.03-.96,1.43-.41.4-.89.72-1.43.96-.54.24-1.13.36-1.76.36s-1.21-.12-1.76-.36c-.54-.24-1.02-.56-1.43-.96-.41-.4-.73-.88-.96-1.43-.23-.55-.35-1.14-.35-1.77s.11-1.19.35-1.74c.23-.55.55-1.03.96-1.43.41-.4.89-.72,1.43-.96.54-.24,1.13-.36,1.76-.36s1.21.12,1.76.36c.54.24,1.02.56,1.43.96.41.4.73.88.96,1.43.23.55.35,1.13.35,1.74Z"></path><path class="cls-2" d="m425.37,218.33c-1.83,0-3.59-.21-5.27-.64s-3.25-1.04-4.7-1.83c-1.45-.79-2.77-1.75-3.95-2.87-1.18-1.12-2.19-2.36-3.03-3.73-.84-1.37-1.48-2.85-1.94-4.46-.46-1.61-.69-3.28-.69-5.03s.23-3.42.69-5.03c.46-1.61,1.1-3.1,1.94-4.47.84-1.38,1.85-2.62,3.03-3.74,1.18-1.12,2.5-2.08,3.95-2.87,1.45-.79,3.02-1.4,4.7-1.83,1.68-.43,3.44-.64,5.27-.64s3.48.2,5.16.59c1.68.4,3.25.99,4.7,1.79,1.45.8,2.74,1.8,3.87,3.02,1.13,1.21,2.02,2.63,2.68,4.26l-4.43,1.78c-.35-1.12-.81-2.48-1.38-3.41-.58-.93-1.27-1.73-2.07-2.39-.8-.66-1.71-1.18-2.73-1.55-1.02-.37-2.13-.56-3.34-.56-1.29,0-2.48.22-3.56.65-1.08.43-2.07.93-2.92,1.66-.85.73-1.7,1.47-2.34,2.46-.64.98-1.13,1.96-1.55,3.08-.42,1.11-.66,2.53-.88,3.72-.22,1.19-.32,2.35-.32,3.49,0,1.81.21,3.61.63,5.4.42,1.79,1.1,3.16,2.02,4.59.92,1.43,2.12,2.48,3.59,3.36,1.47.89,3.24,1.7,5.33,1.7,1.14,0,2.21-.44,2.85-.95.64-.51.96-1.41.96-2.68v-11.25h10.3v13.45c-2.76,2.1-7.41,4.94-16.57,4.94Z"></path><path class="cls-2" d="m501.04,199.8c0,2.87-.49,5.45-1.48,7.75-.99,2.3-2.36,4.25-4.1,5.85-1.75,1.6-3.81,2.83-6.2,3.68-2.39.86-4.98,1.29-7.76,1.29s-5.37-.43-7.76-1.29c-2.39-.86-4.46-2.08-6.2-3.68-1.75-1.6-3.11-3.55-4.1-5.85-.99-2.3-1.48-4.88-1.48-7.75s.49-5.52,1.47-7.82c.98-2.3,2.34-4.24,4.08-5.83,1.74-1.59,3.8-2.81,6.19-3.66,2.39-.85,4.99-1.27,7.81-1.27s5.42.42,7.81,1.27c2.39.85,4.45,2.07,6.19,3.66,1.74,1.59,3.1,3.54,4.08,5.83.98,2.3,1.47,4.91,1.47,7.82Zm-9.99,0c0-1.09-.05-2.2-.15-3.34s-.28-2.24-.54-3.31c-.26-1.07-.62-2.08-1.07-3.02-.45-.94-1.03-1.76-1.74-2.46-.71-.7-1.56-1.25-2.56-1.66s-2.16-.61-3.5-.61-2.53.2-3.53.61c-1.01.4-1.86.95-2.57,1.64-.71.69-1.29,1.51-1.73,2.45-.44.94-.8,1.94-1.05,3-.26,1.06-.43,2.17-.53,3.31-.1,1.14-.15,2.27-.15,3.37s.05,2.2.15,3.34.28,2.24.54,3.3c.26,1.06.62,2.06,1.07,3,.45.94,1.03,1.76,1.74,2.46.71.7,1.56,1.26,2.56,1.67,1,.41,2.16.62,3.5.62s2.44-.21,3.41-.63c.97-.42,1.81-.99,2.52-1.71.71-.72,1.3-1.55,1.77-2.5.47-.95.84-1.95,1.11-3.02.27-1.06.47-2.15.58-3.27.11-1.12.17-2.21.17-3.26Z"></path><path class="cls-2" d="m548.65,217.64h-25.56v-35.59h9.81v31.07h15.74v4.52Z"></path><path class="cls-2" d="m603.72,199.8c0,1.73-.23,3.37-.69,4.93-.46,1.56-1.11,3-1.94,4.31-.83,1.32-1.83,2.51-2.98,3.57-1.15,1.06-2.43,1.97-3.82,2.71-1.39.74-2.88,1.31-4.47,1.72-1.59.4-3.23.6-4.91.6h-15.69v-35.59h15.69c1.68,0,3.31.2,4.89.59,1.58.4,3.07.96,4.46,1.69,1.39.73,2.67,1.63,3.83,2.68,1.16,1.06,2.16,2.24,2.99,3.55.83,1.31,1.48,2.74,1.94,4.3.46,1.56.69,3.2.69,4.93Zm-9.96,0c0-1.93-.23-3.76-.71-5.5-.47-1.74-1.2-3.27-2.19-4.58-.99-1.32-2.24-2.36-3.77-3.14-1.52-.77-3.35-1.16-5.47-1.16h-2.59v28.77h2.59c2.09,0,3.9-.39,5.42-1.17s2.79-1.84,3.78-3.16,1.73-2.85,2.21-4.58c.48-1.73.72-3.55.72-5.46Z"></path><path class="cls-2" d="m181.67,217.64h-25.56v-35.59h9.81v31.07h15.74v4.52Z"></path><path class="cls-2" d="m223.2,217.64h-9.81v-35.59h9.81v35.59Z"></path><path class="cls-2" d="m333.45,204.89v-6.9c0-.86-.03-1.77-.09-2.73-.06-.96-.18-1.92-.37-2.87-.19-.95-.45-1.85-.79-2.71-.34-.86-.79-1.61-1.36-2.26s-1.26-1.17-2.08-1.56c-.82-.39-1.62-.58-2.76-.58-1.14,0-1.94.19-2.76.58-.82.39-1.51.91-2.08,1.56s-1.02,1.41-1.36,2.26c-.34.86-.6,1.76-.79,2.71-.19.95-.31,1.9-.37,2.87-.06.96-.09,1.87-.09,2.73v6.9h14.88Zm-14.88,4.08v8.65h-9.81v-18.09c0-2.59.41-4.99,1.24-7.22.82-2.22,1.99-4.16,3.5-5.8,1.51-1.64,3.32-2.92,5.44-3.86,2.12-.93,4.48-1.4,7.08-1.4,2.6,0,4.96.47,7.08,1.4,2.12.93,3.93,2.22,5.44,3.86,1.51,1.64,2.67,3.57,3.5,5.8s1.24,4.63,1.24,7.22v18.09h-9.81v-8.65s-14.88,0-14.88,0Z"></path><path class="cls-2" d="m264.95,186.49c-.68.35-1.21.83-1.59,1.43-.38.6-.57,1.35-.57,2.24,0,.71.14,1.31.42,1.8.28.49.66.91,1.13,1.26.47.35,1,.63,1.59.85.59.22,1.21.41,1.84.58s5.6,1.42,6.69,1.73c1.09.31,2.16.68,3.21,1.1s2.06.9,3.01,1.44c.96.55,1.8,1.19,2.52,1.94.72.75,1.3,1.61,1.73,2.59.43.98.64,2.11.64,3.37,0,1.53-.19,2.88-.58,4.05-.39,1.17-.93,2.18-1.63,3.04-.7.86-1.53,1.58-2.49,2.15-.96.58-2,1.04-3.13,1.39-1.13.35-2.32.59-3.58.74-1.26.15-2.7.22-4.24.22-5.68,0-11.18-2.13-15.64-6.92l4.66-4.73c2.5,5.06,6.04,7.36,10.98,7.36,3.31,0,4.75-.54,5.46-.9.71-.36,1.27-.85,1.67-1.45.4-.6.6-1.35.6-2.26,0-.69-.16-1.29-.47-1.78-.31-.49-.72-.92-1.22-1.27-.5-.36-1.08-.66-1.72-.9-.64-.24-1.3-.45-1.96-.63-.67-.17-5.66-1.48-6.71-1.8-1.06-.32-2.09-.69-3.12-1.1-1.02-.41-1.99-.88-2.9-1.42-.91-.54-1.72-1.17-2.41-1.9-.69-.73-1.25-1.58-1.66-2.55-.41-.96-.62-2.07-.62-3.32,0-1.5.18-2.83.56-3.99.37-1.16.89-2.17,1.57-3.03.68-.86,1.47-1.58,2.4-2.16.92-.58,1.94-1.05,3.04-1.41,1.1-.35,2.28-.61,3.52-.76,1.24-.16,2.52-.24,3.82-.24,6.2,0,11.29,2.35,15.2,6.92l-4.34,4.4c-3.24-5.97-7.19-7-10.71-7s-4.98.91-4.98.91Z"></path><path class="cls-1" d="m330.23,120.92c-2.07,0-3.75-1.68-3.75-3.75s1.68-3.75,3.75-3.75c7.83,0,12.88-3.33,12.88-8.49s-5.06-8.49-12.88-8.49c-2.07,0-3.75-1.68-3.75-3.75s1.68-3.75,3.75-3.75c14.08,0,20.39,8.04,20.39,16s-6.3,16-20.39,16Z"></path><path class="cls-1" d="m301.88,108.67c-1.05,0-2.09-.44-2.83-1.29-1.36-1.56-1.2-3.93.36-5.29,4.54-3.96,16.63-13.16,30.81-13.16,2.07,0,3.75,1.68,3.75,3.75s-1.68,3.75-3.75,3.75c-8.08,0-17.76,4.23-25.88,11.31-.71.62-1.59.92-2.46.92Z"></path><path class="cls-1" d="m330.23,120.92c-14.19,0-26.27-9.2-30.81-13.16-1.56-1.36-1.73-3.73-.36-5.29,1.36-1.56,3.73-1.73,5.29-.36,8.13,7.08,17.8,11.31,25.88,11.31,2.07,0,3.75,1.68,3.75,3.75s-1.68,3.75-3.75,3.75Z"></path><path class="cls-1" d="m273.53,120.92c-14.08,0-20.39-8.04-20.39-16s6.3-16,20.39-16c2.07,0,3.75,1.68,3.75,3.75s-1.68,3.75-3.75,3.75c-7.83,0-12.88,3.33-12.88,8.49s5.06,8.49,12.88,8.49c2.07,0,3.75,1.68,3.75,3.75s-1.68,3.75-3.75,3.75Z"></path><path class="cls-1" d="m301.88,108.67c-.87,0-1.75-.3-2.46-.92-8.12-7.08-17.8-11.31-25.88-11.31-2.07,0-3.75-1.68-3.75-3.75s1.68-3.75,3.75-3.75c14.19,0,26.28,9.2,30.81,13.16,1.56,1.36,1.73,3.73.36,5.29-.74.85-1.78,1.29-2.83,1.29Z"></path><path class="cls-1" d="m273.53,120.92c-2.07,0-3.75-1.68-3.75-3.75s1.68-3.75,3.75-3.75c8.08,0,17.76-4.23,25.88-11.31,1.56-1.36,3.93-1.2,5.29.36,1.36,1.56,1.2,3.93-.36,5.29-4.54,3.96-16.62,13.16-30.81,13.16Z"></path><path class="cls-1" d="m301.87,108.69c-.75,0-1.51-.23-2.17-.69-2.61-1.86-25.52-18.61-25.52-34.85,0-8.96,4.72-13.47,8.68-15.68,10.56-5.89,19.1,1.23,22.14,5.81,1.15,1.73.68,4.06-1.05,5.2-1.73,1.15-4.06.68-5.2-1.05-.51-.74-5.26-7.3-12.24-3.41-3.25,1.81-4.83,4.8-4.83,9.13,0,10.51,16.15,24.31,22.37,28.74,1.69,1.2,2.08,3.54.88,5.23-.73,1.03-1.89,1.58-3.06,1.58Z"></path><path class="cls-1" d="m301.88,108.69c-1.17,0-2.33-.55-3.06-1.58-1.2-1.69-.81-4.03.88-5.23,6.22-4.43,22.37-18.23,22.37-28.74,0-4.33-1.58-7.32-4.83-9.13-6.98-3.89-11.73,2.67-12.25,3.43-1.16,1.7-3.49,2.16-5.2,1.01-1.71-1.15-2.18-3.46-1.04-5.18,3.04-4.58,11.59-11.7,22.14-5.82,3.96,2.21,8.68,6.72,8.68,15.68,0,16.24-22.91,33-25.52,34.85-.66.47-1.42.69-2.17.69Z"></path><path class="cls-1" d="m306.79,19.14c-2.13.72-3.82,2.41-4.54,4.54-.13.38-.63.38-.75,0-.72-2.13-2.41-3.82-4.54-4.54-.38-.13-.38-.63,0-.75,2.13-.72,3.82-2.41,4.54-4.54.13-.38.63-.38.75,0,.72,2.13,2.41,3.82,4.54,4.54.38.13.38.63,0,.75Z"></path><path class="cls-1" d="m267.76,46.44c-1.71.57-3.06,1.92-3.63,3.63-.1.3-.5.3-.6,0-.57-1.71-1.92-3.06-3.63-3.63-.3-.1-.3-.5,0-.6,1.71-.57,3.06-1.92,3.63-3.63.1-.3.5-.3.6,0,.57,1.71,1.92,3.06,3.63,3.63.3.1.3.5,0,.6Z"></path><path class="cls-1" d="m351.55,67.95c-1.37.46-2.45,1.54-2.91,2.91-.08.24-.4.24-.48,0-.46-1.37-1.54-2.45-2.91-2.91-.24-.08-.24-.4,0-.48,1.37-.46,2.45-1.54,2.91-2.91.08-.24.4-.24.48,0,.46,1.37,1.54,2.45,2.91,2.91.24.08.24.4,0,.48Z"></path><path class="cls-1" d="m301.94,148.13c-30.75,0-59.54-19.3-70.09-49.96-6.44-18.7-5.21-38.8,3.47-56.57,8.67-17.78,23.75-31.11,42.46-37.55,38.62-13.29,80.84,7.31,94.13,45.93h0c13.29,38.61-7.32,80.84-45.93,94.13-7.95,2.74-16.06,4.04-24.04,4.04Zm-.12-140.62c-7.17,0-14.45,1.17-21.6,3.63-16.81,5.78-30.36,17.77-38.15,33.75-7.8,15.98-8.9,34.03-3.12,50.84,5.78,16.81,17.77,30.36,33.75,38.15,15.98,7.79,34.03,8.9,50.84,3.12,34.7-11.94,53.21-49.89,41.27-84.59h0c-9.48-27.55-35.36-44.9-62.99-44.9Z"></path><path class="cls-1" d="m301.88,66.67c-.57,0-1.15-.13-1.67-.39-.62-.31-15.27-7.75-15.27-20.88,0-9.34,7.6-16.95,16.95-16.95s16.95,7.6,16.95,16.95c0,13.13-14.65,20.57-15.28,20.88-.53.26-1.1.39-1.67.39Zm0-30.71c-5.21,0-9.44,4.24-9.44,9.44,0,6.42,6.33,11.21,9.44,13.18,3.11-1.97,9.44-6.76,9.44-13.18,0-5.21-4.24-9.44-9.44-9.44Z"></path></g></svg>