<svg xmlns="http://www.w3.org/2000/svg" id="Layer_1" data-name="Layer 1" viewBox="0 0 1920 1080"><defs><style>      .cls-1 {        fill: #028b9a;      }      .cls-1, .cls-2 {        stroke-width: 0px;      }      .cls-2 {        fill: #43b6bf;      }    </style></defs><path class="cls-1" d="M1014.188,135.237c-23.49,7.913-42.074,26.496-49.986,49.986-1.396,4.145-6.892,4.145-8.288,0-7.913-23.49-26.496-42.074-49.986-49.986-4.145-1.396-4.145-6.892,0-8.288,23.49-7.913,42.074-26.496,49.986-49.986,1.396-4.145,6.892-4.145,8.288,0,7.913,23.49,26.496,42.074,49.986,49.986,4.145,1.396,4.145,6.892,0,8.288Z"></path><path class="cls-1" d="M584.335,435.854c-18.792,6.33-33.659,21.197-39.989,39.989-1.117,3.316-5.514,3.316-6.631,0-6.33-18.792-21.197-33.659-39.989-39.989-3.316-1.117-3.316-5.514,0-6.631,18.792-6.33,33.659-21.197,39.989-39.989,1.117-3.316,5.514-3.316,6.631,0,6.33,18.792,21.197,33.659,39.989,39.989,3.316,1.117,3.316,5.514,0,6.631Z"></path><path class="cls-1" d="M1507,672.708c-15.034,5.064-26.927,16.958-31.991,31.991-.894,2.653-4.411,2.653-5.304,0-5.064-15.034-16.958-26.927-31.991-31.991-2.653-.894-2.653-4.411,0-5.304,15.034-5.064,26.927-16.958,31.991-31.991.894-2.653,4.411-2.653,5.304,0,5.064,15.034,16.958,26.927,31.991,31.991,2.653.894,2.653,4.411,0,5.304Z"></path><path class="cls-1" d="M506.036,1079.928s0-.003,0-.005c0-56.813,55.683-93.518,141.856-93.518,70.925,0,152.983,29.558,228.661,81.022,5.315,4.442,10.397,8.607,15.221,12.501h136.564c4.82-3.89,9.898-8.052,15.208-12.489,75.688-51.471,157.751-81.033,228.673-81.033,86.183,0,141.856,36.705,141.856,93.518,0,.002,0,.003,0,.005h82.652v-.005c0-87.686-69.414-176.169-224.507-176.169-27.182,0-53.662,3.074-79.128,8.37,41.243-56.586,71.985-119.698,71.985-182.129,0-98.684-51.99-148.383-95.606-172.709-19.68-10.971-38.723-17.825-56.95-21.416,20.049-31.382,34.158-68.648,34.158-111.39,0-102.901-83.721-186.622-186.622-186.622s-186.612,83.721-186.612,186.622c0,42.738,14.105,80,34.15,111.38-18.228,3.596-37.276,10.457-56.961,21.436-43.606,24.315-95.586,74.015-95.586,172.699,0,62.43,30.741,125.543,71.982,182.128-25.468-5.297-51.95-8.37-79.136-8.37-155.093,0-224.507,88.483-224.507,176.169,0,.002,0,.003,0,.005h82.652ZM960.055,320.51c57.328,0,103.97,46.643,103.97,103.97,0,70.676-69.737,123.493-103.97,145.165-34.223-21.672-103.96-74.489-103.96-145.165,0-57.327,46.633-103.97,103.96-103.97ZM790.878,629.486c76.86-42.839,129.174,29.39,134.753,37.562,12.612,19.008,38.269,24.194,57.287,11.562,4.78-3.174,8.684-7.173,11.653-11.682,6.699-9.693,58.704-79.771,134.652-37.453,35.797,19.967,53.201,52.848,53.201,100.52,0,91.514-111.254,205.714-191.663,273.596-11.315,7.885-21.587,15.539-30.703,22.66-9.125-7.129-19.409-14.792-30.737-22.686-80.404-67.885-191.624-182.067-191.624-273.57,0-47.682,17.394-80.563,53.181-100.51Z"></path><g><g><path class="cls-2" d="M1124.5,384.2l4.3,10.1c1.2,2.8,1.3,5.4.5,7.5-.7,1.7-2.1,3.1-4.1,4h0c-3.7,1.6-6.9.4-9.2-2.4l-5.9,9.8-2-4.7,5.5-9-2.1-5-7.9,3.4-1.7-4,22.6-9.7h0ZM1117.5,398.9c1.2,2.8,3.5,4,5.8,3h0c2.4-1.1,3-3.4,1.7-6.3l-2.5-5.8-7.6,3.3,2.5,5.8h.1Z"></path><path class="cls-2" d="M1137.5,412.2l9.6,15.5-3.3,2-7.3-11.8-5.4,3.4,6.5,10.5-3.3,2-6.5-10.5-5.6,3.5,7.4,12-3.3,2-9.7-15.7,20.9-13h0v.1Z"></path><path class="cls-2" d="M1153.6,436.4l2.8,3.3-15.9,13.3,8.3,9.9-3,2.5-11.1-13.3,18.9-15.8h0v.1Z"></path><path class="cls-2" d="M1178.1,462.4l3,2.7-8.3,25.8-3.4-3,2.1-6.1-8.7-7.7-5.8,2.8-3.3-2.9,24.6-11.4-.2-.2h0ZM1172.8,477.8l3.4-10.2-9.7,4.6,6.3,5.6h0Z"></path><path class="cls-2" d="M1197.4,483l-6.5-4.3,2.2-3.3,16.6,11.1-2.2,3.3-6.5-4.3-11.5,17.2-3.6-2.4,11.5-17.2h0v-.1Z"></path><path class="cls-2" d="M1219.3,491.5l3.8,2-11.3,21.9-3.8-2,11.3-21.9h0Z"></path><path class="cls-2" d="M1228.8,510.2h0c2.4-6.6,9.4-10.2,16.5-7.6s10.1,9.8,7.8,16.3h0c-2.4,6.6-9.4,10.2-16.5,7.6-7.1-2.6-10.1-9.8-7.8-16.3ZM1248.8,517.4h0c1.6-4.6-.3-9.5-4.9-11.2s-9.1.8-10.8,5.3h0c-1.6,4.6.3,9.5,4.9,11.2s9.1-.8,10.8-5.3Z"></path><path class="cls-2" d="M1267.3,509.8l4,.7,10,19.1,3-16.8,4.2.8-4.4,24.3-3.6-.6-10.3-19.7-3.1,17.3-4.2-.8,4.4-24.3Z"></path><path class="cls-2" d="M1297.8,535.7l2.7-3c2.3,2.1,4.6,3.3,7.7,3.4,2.7,0,4.4-1.1,4.4-3h0c0-1.8-.9-2.8-5.5-4-5.2-1.4-8.1-3-8-7.6h0c0-4.3,3.7-7.1,8.6-7,3.6,0,6.4,1.3,8.9,3.3l-2.4,3.2c-2.2-1.7-4.4-2.7-6.6-2.7s-4,1.2-4.1,2.8h0c0,2,1,2.8,5.7,4.1,5.2,1.4,7.8,3.3,7.7,7.4h0c0,4.7-3.8,7.3-9,7.2-3.8,0-7.3-1.5-10.2-4.2h.1v.1Z"></path><path class="cls-2" d="M1328,514.7l4.3-.5,1.3,10.2,11.7-1.4-1.3-10.2,4.3-.5,3,24.5-4.3.5-1.3-10.3-11.7,1.4,1.3,10.3-4.3.5-3-24.5Z"></path><path class="cls-2" d="M1360.3,509.5l4.2-1,6,23.9-4.2,1-6-23.9h0Z"></path><path class="cls-2" d="M1376.6,505.1l9.1-3.4c5.4-2,9.9-.2,11.7,4.4h0c1.9,5.2-1.2,9.5-6.3,11.4l-4.6,1.7,2.8,7.4-4.1,1.5-8.6-23.1h0v.1ZM1389.8,513.8c3.1-1.1,4.3-3.6,3.4-6h0c-1-2.8-3.5-3.5-6.5-2.3l-4.7,1.8,3.1,8.3,4.7-1.8Z"></path><path class="cls-2" d="M1425.6,486l-6.5,4.3-2.2-3.3,16.7-11,2.2,3.4-6.5,4.3,11.4,17.2-3.6,2.4-11.4-17.2h0l-.1-.1Z"></path><path class="cls-2" d="M1441.4,469.9l3.2-2.9,6.9,7.6,8.7-7.9-6.9-7.6,3.2-2.9,16.5,18.3-3.2,2.9-7-7.7-8.7,7.9,7,7.7-3.2,2.9-16.5-18.3Z"></path><path class="cls-2" d="M1464.5,447.6l11.6-14.1,3,2.5-8.8,10.8,5,4.1,7.8-9.6,3,2.5-7.8,9.6,5.1,4.2,8.9-10.9,3,2.5-11.7,14.3-19.1-15.6v-.3Z"></path><path class="cls-2" d="M1482.3,424.7l5.6-9.4c1.6-2.7,3.6-4.3,5.8-4.8,1.8-.4,3.8-.1,5.6,1h0c3.5,2.1,4.3,5.4,3.4,8.9l11.4-.9-2.6,4.4-10.5.8-2.8,4.7,7.4,4.4-2.2,3.7-21.2-12.6v-.2h.1ZM1498.2,421.8c1.6-2.7,1.2-5.2-.9-6.5h0c-2.3-1.4-4.5-.5-6.1,2.3l-3.2,5.4,7.1,4.2,3.3-5.4h-.2Z"></path><path class="cls-2" d="M1500.4,389.8l1.5-3.7,27.1-.8-1.7,4.2h-6.5c0,.1-4.3,10.9-4.3,10.9l4.6,4.6-1.7,4.1-19-19.3h0ZM1516.6,389.7l-10.7.3,7.6,7.6,3.2-7.9h-.1Z"></path><path class="cls-2" d="M1508.7,366.9l2.2-9.5c1.3-5.6,5.3-8.4,10.2-7.3h0c5.4,1.3,7.2,6.2,6,11.5l-1.1,4.8,7.7,1.8-1,4.2-24-5.6h0v.1ZM1523.3,360.7c.7-3.2-.6-5.6-3.1-6.2h0c-2.8-.7-4.8,1-5.5,4.2l-1.1,4.9,8.6,2,1.1-4.9Z"></path><path class="cls-2" d="M1514.3,337.8l.5-4.3,24.5,2.8-.5,4.3-24.5-2.8Z"></path><path class="cls-2" d="M1536.9,322.7l-3.1-2.6c2-2.4,3.2-4.7,3.2-7.8s-1.2-4.4-3.1-4.4h0c-1.8,0-2.7,1-3.8,5.6-1.3,5.2-2.8,8.2-7.4,8.2h0c-4.2,0-7.1-3.5-7.1-8.4s1.1-6.4,3.1-8.9l3.3,2.3c-1.7,2.2-2.5,4.4-2.5,6.7s1.3,4,2.9,4h0c1.9,0,2.7-1.1,3.9-5.8,1.3-5.2,3.1-7.9,7.2-7.9h0c4.6,0,7.4,3.6,7.4,8.8s-1.3,7.3-3.9,10.3h0l-.1-.1Z"></path><path class="cls-2" d="M1518.2,287l1.1,7.7-4,.6-2.7-19.8,4-.6,1.1,7.7,20.4-2.8.6,4.3-20.4,2.8h0l-.1.1Z"></path></g><g><path class="cls-2" d="M1103.8,358.1c.6-.1,1.2-.2,1.8,0,.6.1,1.1.3,1.6.6.5.3.9.7,1.3,1.2s.6,1,.8,1.6c0,.6.2,1.2,0,1.8s-.3,1.1-.6,1.6c-.3.5-.7.9-1.2,1.3s-1,.6-1.6.8c-.6.1-1.2.2-1.8,0s-1.1-.3-1.6-.6c-.5-.3-.9-.7-1.3-1.2s-.6-1-.8-1.6c0-.6-.2-1.2,0-1.8s.3-1.1.6-1.6c.3-.5.7-.9,1.2-1.3s1-.6,1.6-.8Z"></path><path class="cls-2" d="M1098.3,296.9c1.7,0,3.4.2,4.9.6,1.6.4,3,1.1,4.3,1.9s2.5,1.8,3.6,2.9,2,2.4,2.7,3.8c.8,1.4,1.3,2.9,1.8,4.5.4,1.6.6,3.2.7,4.9l.2,15.7-35.6.4-.2-15.7c0-1.7.2-3.3.5-4.9s.9-3.1,1.6-4.5,1.6-2.7,2.6-3.9c1-1.2,2.2-2.2,3.5-3s2.7-1.5,4.3-2c1.6-.5,3.2-.7,4.9-.7h.2ZM1098.4,306.9c-1.9,0-3.8.3-5.5.8s-3.3,1.2-4.6,2.2c-1.3,1-2.3,2.3-3.1,3.8-.8,1.5-1.1,3.4-1.1,5.5v2.6l28.8-.3v-2.6c0-2.1-.5-3.9-1.3-5.4s-1.9-2.8-3.2-3.7c-1.3-1-2.9-1.7-4.6-2.2s-3.6-.7-5.5-.7h.1Z"></path><path class="cls-2" d="M1122,265.5l-2.6,9.5-34.3-9.3,4.6-16.9c.4-1.6,1-3.1,1.8-4.5s1.7-2.5,2.8-3.4,2.4-1.5,3.9-1.9c1.5-.3,3.1-.2,4.9.2,1.4.4,2.7,1,3.8,2,1.1.9,2,2,2.7,3.3s1.2,2.6,1.5,4.1.4,2.9.2,4.4c1.2-.3,2.4-.7,3.5-1.1,1.1-.4,2.2-.9,3.2-1.3,1-.5,1.9-1,2.8-1.4.9-.5,1.7-1,2.4-1.4,1.7-1.1,3.3-2.2,4.6-3.4l-3.2,11.8c-1.2.7-2.5,1.3-4,1.8-1.3.4-2.8.8-4.6,1.1-1.8.3-3.8.4-6,.2l-.8,2.9,12.8,3.5v-.2h0ZM1100.5,248.9c-2.3-.6-4.1-.5-5.5.3s-2.4,2.4-3,4.6l-.9,3.3,14.9,4.1.9-3.3c.3-1.2.4-2.3.2-3.2s-.6-1.8-1.2-2.6-1.4-1.4-2.3-1.9-1.9-.9-3-1.2h0l-.1-.1Z"></path><path class="cls-2" d="M1125.1,210.2c.6.3,1,.7,1.4,1.1s.6,1,.8,1.5.2,1.1.2,1.7-.2,1.2-.5,1.7c-.3.6-.7,1-1.1,1.4-.5.4-1,.7-1.5.8-.5.2-1.1.2-1.7.2s-1.2-.2-1.7-.5c-.6-.3-1-.7-1.4-1.1-.4-.5-.7-1-.8-1.5-.2-.5-.2-1.1-.2-1.7s.2-1.2.5-1.7.7-1,1.1-1.4c.5-.4,1-.7,1.5-.8.5-.2,1.1-.2,1.7-.2s1.2.2,1.7.5Z"></path><path class="cls-2" d="M1168.7,178.2l-16,20-27.8-22.2,6.1-7.7,24.3,19.4,9.8-12.3,3.5,2.8h.1Z"></path><path class="cls-2" d="M1191.8,157.6l-7.6,6.3-22.7-27.4,7.6-6.3,22.7,27.4Z"></path><path class="cls-2" d="M1232.6,120.4c.7,1.4,1.1,2.7,1.3,3.9.2,1.2.2,2.4,0,3.5-.2,1.1-.6,2.1-1.2,3s-1.3,1.8-2.2,2.7c-.8.8-1.8,1.6-2.9,2.3s-2.2,1.4-3.3,1.9c-1.5.8-3,1.4-4.4,1.8-1.4.4-2.8.7-4.2.8-1.4,0-2.8,0-4.3-.2-1.4-.2-3-.7-4.6-1.2l2.2-6.9c.9.8,2,1.4,3.1,1.9,1.2.5,2.3.8,3.5,1s2.3.2,3.4,0c1.1-.1,2.1-.4,2.9-.8,1-.5,1.8-1,2.6-1.6.8-.6,1.4-1.2,1.9-1.8s.7-1.3.8-2c0-.7,0-1.5-.5-2.3-.3-.6-.7-1.1-1.2-1.4s-1.1-.5-1.7-.6h-1.9c-.7,0-1.4.2-2,.3-.7.2-1.3.3-2,.5-.6.2-1.2.3-1.7.4-1,.2-2,.4-3.1.6s-2.2.3-3.3.4h-3.2c-1.1,0-2.1-.3-3-.6-.9-.3-1.8-.8-2.6-1.5-.8-.7-1.5-1.6-2.1-2.7-.7-1.3-1.1-2.6-1.3-3.8-.2-1.2-.2-2.3,0-3.4s.6-2.1,1.1-3c.6-.9,1.2-1.8,2.1-2.6.8-.8,1.8-1.6,2.8-2.3,1-.7,2.1-1.4,3.3-1.9,1.6-.8,3.1-1.4,4.5-1.8s2.9-.6,4.2-.6,2.7,0,4,.4,2.6.7,3.9,1.2l-2.2,6.9c-.9-.9-1.9-1.6-2.9-2.1-1.1-.5-2.1-.9-3.2-1.1s-2.1-.3-3.1-.2c-1,0-1.9.3-2.7.7-1,.5-1.9,1.1-2.7,1.6s-1.4,1.2-1.8,1.8c-.4.6-.7,1.3-.8,2s0,1.5.5,2.3c.3.6.7,1.1,1.2,1.4s1,.5,1.6.6,1.2,0,1.8,0,1.3-.2,1.9-.3c.6,0,1.3-.3,1.9-.5s1.2-.3,1.7-.4c1-.2,2.1-.4,3.2-.6s2.2-.4,3.4-.5h3.3c1.1,0,2.1.2,3.1.6s1.9.8,2.7,1.5c.8.7,1.5,1.6,2.1,2.7h.1Z"></path><path class="cls-2" d="M1288.1,99.3v.5c.3,1.4.5,2.8.5,4.3s0,3-.2,4.6c-.2,1.5-.4,3.1-.7,4.6-.3,1.5-.8,3.1-1.3,4.5s-1.1,2.9-1.8,4.2c-.7,1.3-1.4,2.5-2.2,3.6l-4-1.3c.4-1.1.7-2.2.9-3.4.2-1.2.4-2.5.5-3.8s.2-2.6.2-4v-4c0-1.3-.2-2.6-.4-3.8-.2-1.3-.4-2.4-.6-3.5-.2-.9-.4-1.9-.6-3s-.5-2.2-.9-3.3c-.4-1.1-.8-2.2-1.3-3.2s-1.1-1.9-1.8-2.7c-.7-.7-1.6-1.3-2.5-1.6-1-.3-2.1-.4-3.3,0-1.1.2-2,.6-2.8,1.2s-1.3,1.2-1.7,1.9-.7,1.6-.9,2.5c-.2.9-.2,1.8-.2,2.8s0,1.9.2,2.9c0,1,.3,1.9.5,2.7l1.4,6.8,10.4-2.2.8,4-10.4,2.2,1.7,8.5-9.6,2-3.7-17.7c-.5-2.5-.6-5-.2-7.3s1.1-4.5,2.3-6.4c1.1-1.9,2.7-3.5,4.5-4.9,1.9-1.3,4.1-2.3,6.7-2.8,1.7-.4,3.4-.4,5-.3,1.6.2,3.1.6,4.5,1.2s2.7,1.4,4,2.4c1.2,1,2.3,2.1,3.2,3.4.9,1.3,1.7,2.7,2.4,4.1.7,1.5,1.1,3,1.4,4.7v-.3h0v-.1Z"></path><path class="cls-2" d="M1322.5,98.2c0,.6,0,1.2-.4,1.7-.2.5-.6,1-1,1.4s-.9.7-1.5.9c-.6.2-1.1.3-1.7.3s-1.2,0-1.8-.4c-.5-.2-1-.6-1.4-1s-.7-.9-.9-1.4c-.2-.5-.3-1.1-.3-1.8s0-1.2.4-1.8c.2-.5.6-1,1-1.4s.9-.7,1.5-.9,1.1-.3,1.8-.3,1.2,0,1.7.4,1,.6,1.4,1,.7.9.9,1.5c.2.6.3,1.1.3,1.8Z"></path><path class="cls-2" d="M1383.2,99.1l-4.5.7c0-1.1-.3-2.2-.6-3.2-.3-1-.8-1.9-1.4-2.7-.6-.8-1.3-1.5-2.2-2.1-.9-.6-1.8-1-3-1.3s-2.3-.4-3.4-.2c-1.1.2-2.1.5-3.1,1s-1.8,1.1-2.7,1.9c-.8.8-1.5,1.6-2.2,2.6-.6.9-1.2,1.9-1.7,3s-.8,2.1-1.1,3.2c-.4,1.7-.6,3.4-.6,5.2s.2,3.4.8,4.9c.5,1.5,1.4,2.9,2.5,4,1.2,1.2,2.7,2,4.6,2.4,1.1.3,1.9.2,2.6,0,.7-.3,1.2-1.1,1.5-2.3l2.6-10.6,9.5,2.3-4.2,17.2-2.8-.7-1-3.1c-1.8.8-3.7,1.2-5.7,1.3-2,0-3.9,0-5.9-.6-1.7-.4-3.3-1-4.7-1.8-1.5-.8-2.8-1.7-3.9-2.8-1.2-1.1-2.1-2.3-3-3.7-.8-1.4-1.5-2.8-1.9-4.3-.5-1.5-.7-3.1-.7-4.8s0-3.3.6-5c.4-1.7,1-3.3,1.8-4.7.8-1.5,1.8-2.8,2.9-3.9s2.3-2.1,3.7-2.9c1.4-.8,2.8-1.5,4.3-1.9s3.1-.7,4.8-.7,3.3.2,5,.6c1.6.4,3.2,1,4.6,1.7,1.5.8,2.8,1.7,3.9,2.8,1.2,1.1,2.1,2.4,2.9,3.8s1.2,3,1.5,4.8h.2v-.1Z"></path><path class="cls-2" d="M1439,136.8c-1.4,2.5-3.2,4.5-5.2,5.9-2,1.5-4.2,2.5-6.5,3s-4.7.5-7.2,0-4.9-1.4-7.4-2.8c-2.4-1.4-4.4-3.1-6.1-5-1.6-1.9-2.8-4-3.5-6.3s-.9-4.6-.6-7.1,1.2-5,2.6-7.4c1.5-2.5,3.2-4.5,5.2-6s4.2-2.5,6.5-3,4.7-.5,7.2,0,5,1.4,7.4,2.8,4.5,3.1,6.1,5,2.8,4,3.5,6.3c.7,2.2.9,4.6.6,7.1-.3,2.5-1.2,5-2.7,7.5h.1ZM1430.4,131.8c.5-.9,1.1-1.9,1.6-3,.5-1,.9-2.1,1.2-3.1.3-1.1.5-2.1.6-3.1,0-1,0-2-.3-3s-.7-1.9-1.4-2.7c-.7-.9-1.6-1.6-2.7-2.3-1.2-.7-2.3-1.1-3.4-1.3s-2.1,0-3,0c-1,.2-1.9.7-2.7,1.2-.9.6-1.7,1.3-2.4,2.1-.8.8-1.5,1.7-2.1,2.6-.7.9-1.3,1.9-1.8,2.8s-1.1,1.9-1.6,3-.9,2.1-1.2,3.1c-.3,1.1-.5,2.1-.6,3.1,0,1,0,2,.3,3s.7,1.9,1.4,2.7c.7.9,1.6,1.6,2.7,2.3s2.2,1,3.3,1.2c1.1.1,2.1,0,3-.2,1-.3,1.9-.7,2.8-1.3s1.7-1.3,2.5-2c.8-.8,1.5-1.6,2.2-2.5s1.3-1.8,1.8-2.7h-.2v.1Z"></path><path class="cls-2" d="M1464.7,184.9l-17.9-18.2,25.4-25,6.9,7-22.1,21.8,11,11.2-3.2,3.2h-.1Z"></path><path class="cls-2" d="M1509.9,222.4c-1.5.9-3,1.5-4.6,1.8-1.6.4-3.2.5-4.7.4-1.6,0-3.1-.3-4.6-.8s-2.9-1.1-4.2-2c-1.3-.8-2.6-1.9-3.7-3-1.1-1.2-2.1-2.5-2.9-4l-7.7-13.6,30.9-17.6,7.7,13.6c.8,1.5,1.5,3,1.9,4.5.4,1.6.7,3.1.7,4.7s0,3.1-.4,4.7c-.3,1.5-.9,3-1.6,4.4s-1.7,2.6-2.8,3.8c-1.1,1.2-2.4,2.2-3.9,3h-.1v.1ZM1505,213.7c1.7-1,3.2-2.1,4.4-3.3,1.3-1.3,2.2-2.7,2.9-4.2s.9-3.1.9-4.8-.6-3.5-1.7-5.3l-1.3-2.3-25,14.2,1.3,2.3c1,1.8,2.3,3.2,3.7,4.1,1.4.9,3,1.5,4.6,1.7s3.3,0,5.1-.3c1.7-.4,3.4-1.1,5.1-2.1h0Z"></path><path class="cls-2" d="M1520.6,254.9c-.6.2-1.2.2-1.8.2s-1.1-.2-1.6-.5-1-.6-1.3-1.1c-.4-.5-.7-1-.8-1.6-.2-.6-.2-1.2-.2-1.8s.2-1.1.5-1.7c.3-.5.6-.9,1.1-1.3.5-.4,1-.7,1.6-.9s1.2-.2,1.8-.2,1.1.2,1.7.5,1,.6,1.3,1.1c.4.5.7,1,.9,1.6.2.6.2,1.2.2,1.8s-.2,1.1-.5,1.7-.6.9-1.1,1.3c-.5.4-1,.7-1.6.9h-.2Z"></path></g></g></svg>