<svg xmlns="http://www.w3.org/2000/svg" id="Layer_2" viewBox="0 0 491.25 252.8"><defs><style>.cls-1{fill:#e1b77e;}.cls-2{fill:#00a4b6;}</style></defs><g id="Layer_1-2"><path class="cls-1" d="m174.84,206.38c-3.54,0-6.4-2.87-6.4-6.4s2.87-6.4,6.4-6.4c13.36,0,21.99-5.69,21.99-14.5s-8.63-14.49-21.99-14.49c-3.54,0-6.4-2.87-6.4-6.4s2.87-6.4,6.4-6.4c24.04,0,34.79,13.71,34.79,27.3s-10.76,27.3-34.79,27.3Z"></path><path class="cls-1" d="m126.46,185.46c-1.79,0-3.57-.74-4.83-2.2-2.32-2.67-2.05-6.71.62-9.04,7.75-6.75,28.38-22.45,52.59-22.45,3.54,0,6.4,2.87,6.4,6.4s-2.87,6.4-6.4,6.4c-13.79,0-30.31,7.21-44.17,19.3-1.21,1.06-2.71,1.58-4.2,1.58Z"></path><path class="cls-1" d="m174.84,206.38c-24.21,0-44.84-15.7-52.59-22.45-2.67-2.32-2.94-6.37-.62-9.04,2.33-2.66,6.37-2.94,9.04-.62,13.87,12.09,30.38,19.3,44.17,19.3,3.54,0,6.4,2.87,6.4,6.4s-2.87,6.4-6.4,6.4Z"></path><path class="cls-1" d="m78.08,206.38c-24.04,0-34.79-13.71-34.79-27.3s10.76-27.3,34.79-27.3c3.54,0,6.4,2.87,6.4,6.4s-2.87,6.4-6.4,6.4c-13.36,0-21.99,5.69-21.99,14.49s8.63,14.5,21.99,14.5c3.54,0,6.4,2.87,6.4,6.4s-2.87,6.4-6.4,6.4Z"></path><path class="cls-1" d="m126.45,185.46c-1.49,0-2.99-.52-4.2-1.58-13.87-12.09-30.38-19.3-44.17-19.3-3.54,0-6.4-2.87-6.4-6.4s2.87-6.4,6.4-6.4c24.22,0,44.84,15.7,52.59,22.45,2.67,2.33,2.94,6.37.62,9.04-1.27,1.45-3.04,2.2-4.83,2.2Z"></path><path class="cls-1" d="m78.08,206.38c-3.54,0-6.4-2.87-6.4-6.4s2.87-6.4,6.4-6.4c13.79,0,30.31-7.21,44.17-19.3,2.67-2.32,6.71-2.05,9.04.62,2.32,2.67,2.05,6.71-.62,9.04-7.74,6.75-28.37,22.45-52.59,22.45Z"></path><path class="cls-1" d="m126.45,185.51c-1.28,0-2.58-.38-3.7-1.18-4.46-3.17-43.56-31.76-43.56-59.48,0-15.29,8.06-23,14.81-26.77,18.02-10.05,32.6,2.1,37.79,9.92,1.96,2.95,1.15,6.92-1.79,8.88-2.95,1.96-6.92,1.15-8.88-1.79-.86-1.27-8.97-12.46-20.88-5.82-5.55,3.09-8.24,8.19-8.24,15.58,0,17.93,27.56,41.48,38.17,49.04,2.88,2.05,3.56,6.05,1.51,8.93-1.25,1.76-3.22,2.69-5.22,2.69Z"></path><path class="cls-1" d="m126.46,185.51c-2,0-3.97-.94-5.22-2.69-2.05-2.88-1.37-6.88,1.51-8.93,10.62-7.56,38.18-31.11,38.18-49.04,0-7.39-2.7-12.48-8.25-15.58-11.91-6.63-20.02,4.56-20.9,5.85-1.98,2.91-5.95,3.69-8.88,1.72-2.92-1.97-3.72-5.91-1.77-8.84,5.2-7.82,19.78-19.96,37.79-9.92,6.76,3.77,14.82,11.47,14.82,26.77,0,27.72-39.1,56.31-43.56,59.48-1.13.8-2.42,1.18-3.7,1.18Z"></path><path class="cls-1" d="m134.85,32.66c-3.64,1.23-6.52,4.11-7.75,7.75-.22.64-1.07.64-1.28,0-1.23-3.64-4.11-6.52-7.75-7.75-.64-.22-.64-1.07,0-1.28,3.64-1.23,6.52-4.11,7.75-7.75.22-.64,1.07-.64,1.28,0,1.23,3.64,4.11,6.52,7.75,7.75.64.22.64,1.07,0,1.28Z"></path><path class="cls-1" d="m68.23,79.25c-2.91.98-5.22,3.29-6.2,6.2-.17.51-.85.51-1.03,0-.98-2.91-3.29-5.22-6.2-6.2-.51-.17-.51-.85,0-1.03,2.91-.98,5.22-3.29,6.2-6.2.17-.51.85-.51,1.03,0,.98,2.91,3.29,5.22,6.2,6.2.51.17.51.85,0,1.03Z"></path><path class="cls-1" d="m211.22,115.96c-2.33.78-4.17,2.63-4.96,4.96-.14.41-.68.41-.82,0-.78-2.33-2.63-4.17-4.96-4.96-.41-.14-.41-.68,0-.82,2.33-.78,4.17-2.63,4.96-4.96.14-.41.68-.41.82,0,.78,2.33,2.63,4.17,4.96,4.96.41.14.41.68,0,.82Z"></path><path class="cls-1" d="m126.56,252.8c-52.47,0-101.61-32.94-119.62-85.27-10.99-31.92-8.88-66.21,5.92-96.55C27.67,40.64,53.4,17.88,85.33,6.89c65.91-22.68,137.96,12.48,160.64,78.38h0c22.68,65.9-12.49,137.96-78.38,160.64-13.57,4.67-27.41,6.89-41.02,6.89Zm-.2-239.99c-12.23,0-24.67,1.99-36.86,6.19-28.69,9.87-51.81,30.33-65.12,57.59-13.3,27.27-15.19,58.08-5.32,86.77,9.87,28.69,30.33,51.81,57.59,65.12,27.27,13.3,58.08,15.19,86.77,5.32,59.22-20.38,90.81-85.14,70.44-144.36h0C217.68,42.42,173.51,12.81,126.36,12.81Z"></path><path class="cls-1" d="m126.46,113.79c-.98,0-1.95-.22-2.85-.67-1.06-.53-26.07-13.23-26.07-35.63,0-15.95,12.97-28.92,28.92-28.92s28.92,12.98,28.92,28.92c0,22.4-25.01,35.1-26.07,35.63-.9.45-1.88.67-2.85.67Zm0-52.42c-8.88,0-16.11,7.23-16.11,16.11,0,10.95,10.81,19.14,16.11,22.5,5.31-3.36,16.11-11.54,16.11-22.5,0-8.88-7.23-16.11-16.11-16.11Z"></path><path class="cls-1" d="m283.66,204.28h5.84c1.65,0,2.94.49,3.78,1.31.69.71,1.09,1.69,1.09,2.83v.04c0,2.15-1.29,3.45-3.13,3.97l3.54,4.96h-2.72l-3.22-4.57h-2.88v4.57h-2.3v-13.11Zm5.67,6.5c1.65,0,2.7-.86,2.7-2.19v-.04c0-1.4-1.01-2.17-2.71-2.17h-3.35v4.4h3.37Z"></path><path class="cls-1" d="m302.43,204.28h9.72v2.06h-7.41v3.41h6.57v2.06h-6.57v3.52h7.51v2.06h-9.81v-13.11Z"></path><path class="cls-1" d="m320.2,204.28h2.3v11.01h6.89v2.1h-9.19v-13.11Z"></path><path class="cls-1" d="m341.67,204.18h2.13l5.77,13.2h-2.43l-1.33-3.16h-6.2l-1.35,3.16h-2.36l5.77-13.2Zm3.3,8l-2.27-5.24-2.25,5.24h4.51Z"></path><path class="cls-1" d="m358.58,206.41h-4.16v-2.13h10.64v2.13h-4.16v10.97h-2.32v-10.97Z"></path><path class="cls-1" d="m372.86,204.28h2.3v13.11h-2.3v-13.11Z"></path><path class="cls-1" d="m383.31,210.87v-.04c0-3.69,2.85-6.78,6.87-6.78s6.83,3.05,6.83,6.74v.04c0,3.69-2.85,6.78-6.87,6.78s-6.84-3.05-6.84-6.74Zm11.29,0v-.04c0-2.55-1.85-4.66-4.46-4.66s-4.42,2.08-4.42,4.63v.04c0,2.55,1.85,4.66,4.46,4.66s4.42-2.08,4.42-4.63Z"></path><path class="cls-1" d="m405.04,204.28h2.13l7.02,9.06v-9.06h2.27v13.11h-1.93l-7.23-9.33v9.33h-2.27v-13.11Z"></path><path class="cls-1" d="m424.17,215.48l1.39-1.65c1.25,1.09,2.51,1.7,4.14,1.7,1.42,0,2.32-.66,2.32-1.65v-.04c0-.94-.53-1.44-2.96-2-2.79-.67-4.36-1.5-4.36-3.91v-.04c0-2.25,1.87-3.8,4.47-3.8,1.91,0,3.43.58,4.76,1.65l-1.24,1.74c-1.18-.88-2.36-1.35-3.56-1.35-1.35,0-2.13.69-2.13,1.55v.04c0,1.01.6,1.46,3.11,2.06,2.77.68,4.21,1.67,4.21,3.84v.04c0,2.45-1.93,3.91-4.68,3.91-2,0-3.9-.69-5.47-2.1Z"></path><path class="cls-1" d="m442.27,204.28h2.3v5.45h6.26v-5.45h2.3v13.11h-2.3v-5.52h-6.26v5.52h-2.3v-13.11Z"></path><path class="cls-1" d="m461.86,204.28h2.3v13.11h-2.3v-13.11Z"></path><path class="cls-1" d="m472.9,204.28h5.17c3.05,0,4.98,1.74,4.98,4.38v.04c0,2.94-2.36,4.47-5.24,4.47h-2.6v4.21h-2.3v-13.11Zm4.98,6.82c1.74,0,2.83-.97,2.83-2.34v-.04c0-1.54-1.1-2.34-2.83-2.34h-2.68v4.72h2.68Z"></path><path class="cls-1" d="m287.82,231.28h-4.16v-2.13h10.64v2.13h-4.16v10.97h-2.32v-10.97Z"></path><path class="cls-1" d="m303.09,229.15h2.3v5.45h6.26v-5.45h2.3v13.11h-2.3v-5.52h-6.26v5.52h-2.3v-13.11Z"></path><path class="cls-1" d="m323.67,229.15h9.72v2.06h-7.41v3.41h6.57v2.06h-6.57v3.52h7.51v2.06h-9.81v-13.11Z"></path><path class="cls-1" d="m342.56,229.15h5.84c1.65,0,2.94.49,3.78,1.31.69.71,1.09,1.69,1.09,2.83v.04c0,2.15-1.29,3.45-3.13,3.97l3.54,4.96h-2.71l-3.22-4.57h-2.88v4.57h-2.31v-13.11Zm5.68,6.5c1.65,0,2.7-.86,2.7-2.19v-.04c0-1.4-1.01-2.17-2.72-2.17h-3.35v4.4h3.37Z"></path><path class="cls-1" d="m367.1,229.06h2.13l5.77,13.2h-2.43l-1.33-3.16h-6.2l-1.35,3.16h-2.36l5.77-13.2Zm3.3,8l-2.27-5.24-2.25,5.24h4.51Z"></path><path class="cls-1" d="m383.59,229.15h5.17c3.05,0,4.98,1.74,4.98,4.38v.04c0,2.94-2.36,4.47-5.24,4.47h-2.6v4.21h-2.31v-13.11Zm4.98,6.82c1.74,0,2.83-.97,2.83-2.34v-.04c0-1.54-1.1-2.34-2.83-2.34h-2.68v4.72h2.68Z"></path><path class="cls-1" d="m402.58,229.15h2.3v13.11h-2.3v-13.11Z"></path><path class="cls-1" d="m413.86,240.35l1.39-1.65c1.26,1.09,2.51,1.7,4.14,1.7,1.42,0,2.32-.66,2.32-1.65v-.04c0-.94-.53-1.44-2.96-2-2.79-.67-4.36-1.5-4.36-3.91v-.04c0-2.25,1.87-3.8,4.48-3.8,1.91,0,3.43.58,4.75,1.65l-1.24,1.74c-1.18-.88-2.36-1.35-3.56-1.35-1.35,0-2.13.69-2.13,1.55v.04c0,1.01.6,1.46,3.11,2.06,2.77.68,4.21,1.67,4.21,3.84v.04c0,2.45-1.93,3.91-4.68,3.91-2.01,0-3.9-.69-5.47-2.1Z"></path><path class="cls-1" d="m436.02,231.28h-4.16v-2.13h10.64v2.13h-4.16v10.97h-2.32v-10.97Z"></path><path class="cls-1" d="m320.46,31.71c0,1.85-.25,3.6-.74,5.26-.49,1.66-1.18,3.2-2.07,4.6-.89,1.41-1.95,2.68-3.18,3.81-1.23,1.13-2.59,2.1-4.07,2.89s-3.08,1.4-4.77,1.83c-1.7.43-3.44.65-5.23.65h-16.74V12.78h16.74c1.79,0,3.53.21,5.22.63,1.69.42,3.27,1.02,4.76,1.81,1.48.78,2.85,1.74,4.09,2.86,1.24,1.13,2.3,2.39,3.19,3.78.89,1.4,1.58,2.93,2.07,4.59.49,1.66.74,3.41.74,5.26Zm-10.62,0c0-2.06-.25-4.01-.75-5.87-.5-1.85-1.28-3.48-2.33-4.89-1.05-1.41-2.4-2.52-4.02-3.35-1.63-.83-3.57-1.24-5.84-1.24h-2.77v30.69h2.77c2.23,0,4.16-.42,5.79-1.25,1.63-.83,2.97-1.96,4.03-3.37,1.06-1.42,1.85-3.05,2.36-4.89.51-1.85.76-3.79.76-5.83Z"></path><path class="cls-1" d="m358.13,50.74h-10.47V12.78h18.67c1.76,0,3.45.21,5.09.62,1.63.41,3.08,1.06,4.34,1.95,1.26.89,2.26,2.03,3.01,3.44.75,1.41,1.12,3.11,1.12,5.12,0,1.57-.33,3.04-.99,4.42-.66,1.38-1.54,2.61-2.64,3.69-1.1,1.08-2.36,1.98-3.78,2.69s-2.9,1.18-4.43,1.41c.69,1.16,1.4,2.26,2.15,3.3.75,1.04,1.5,2.01,2.27,2.91.77.91,1.53,1.74,2.28,2.5.76.76,1.48,1.46,2.16,2.1,1.62,1.48,3.22,2.75,4.8,3.82h-13.05c-1.05-1-2.06-2.21-3.01-3.61-.81-1.2-1.62-2.68-2.44-4.44-.82-1.77-1.45-3.81-1.88-6.13h-3.19v14.18Zm11.13-26.84c0-2.55-.62-4.42-1.86-5.61-1.24-1.2-3.1-1.79-5.58-1.79h-3.69v16.48h3.69c1.32,0,2.45-.25,3.39-.75.94-.5,1.71-1.17,2.31-2,.6-.83,1.04-1.8,1.32-2.89.28-1.09.42-2.23.42-3.43Z"></path><path class="cls-1" d="m415.54,31.75c0,.67-.12,1.3-.37,1.88-.25.59-.59,1.1-1.03,1.53-.44.43-.95.77-1.53,1.03-.58.25-1.2.38-1.87.38s-1.29-.13-1.87-.38c-.58-.26-1.09-.6-1.53-1.03-.44-.43-.78-.94-1.03-1.53-.25-.59-.37-1.22-.37-1.88s.12-1.27.37-1.86c.25-.59.59-1.1,1.03-1.53.44-.43.95-.77,1.53-1.03.58-.25,1.2-.38,1.87-.38s1.29.13,1.87.38c.58.26,1.09.6,1.53,1.03.44.43.78.94,1.03,1.53.25.59.37,1.21.37,1.86Z"></path><path class="cls-2" d="m301.01,180.61c-1.95,0-3.82-.23-5.62-.69-1.8-.46-3.47-1.11-5.01-1.95-1.55-.84-2.95-1.86-4.21-3.06-1.26-1.2-2.34-2.52-3.23-3.98-.89-1.46-1.58-3.04-2.07-4.76-.49-1.71-.73-3.5-.73-5.36s.24-3.65.73-5.37c.49-1.71,1.18-3.3,2.07-4.77.89-1.47,1.97-2.8,3.23-3.99,1.26-1.19,2.66-2.21,4.21-3.06,1.55-.84,3.22-1.49,5.01-1.95,1.8-.46,3.67-.68,5.62-.68s3.71.21,5.51.63c1.8.42,3.47,1.06,5.01,1.91,1.55.85,2.92,1.92,4.13,3.22,1.21,1.29,2.16,2.81,2.86,4.55l-4.72,1.9c-.37-1.2-.86-2.64-1.48-3.64-.62-.99-1.35-1.84-2.21-2.55-.86-.71-1.83-1.26-2.91-1.65-1.09-.4-2.27-.59-3.56-.59-1.38,0-2.65.23-3.8.69-1.15.46-2.2.99-3.12,1.77-.91.78-1.81,1.57-2.49,2.62-.68,1.05-1.2,2.1-1.65,3.28s-.71,2.7-.94,3.97c-.23,1.27-.35,2.51-.35,3.72,0,1.93.23,3.85.68,5.76.45,1.91,1.17,3.37,2.15,4.89.98,1.53,2.26,2.64,3.82,3.59,1.56.95,3.46,1.81,5.69,1.81,1.22,0,2.36-.47,3.04-1.01.68-.54,1.02-1.51,1.02-2.86v-12h10.99v14.34c-2.94,2.23-7.9,5.27-17.67,5.27Z"></path><path class="cls-2" d="m381.72,160.81c0,3.06-.53,5.81-1.58,8.26-1.05,2.45-2.51,4.53-4.38,6.23-1.86,1.71-4.07,3.02-6.62,3.93-2.55.91-5.31,1.37-8.28,1.37s-5.73-.46-8.28-1.37c-2.55-.91-4.75-2.22-6.62-3.93-1.86-1.7-3.32-3.78-4.38-6.23-1.05-2.45-1.58-5.21-1.58-8.26s.52-5.89,1.57-8.35c1.05-2.45,2.5-4.53,4.35-6.22,1.85-1.7,4.06-3,6.6-3.9,2.55-.91,5.33-1.36,8.33-1.36s5.78.45,8.33,1.36c2.55.9,4.75,2.21,6.6,3.9,1.85,1.7,3.3,3.77,4.35,6.22,1.05,2.45,1.57,5.23,1.57,8.35Zm-10.65,0c0-1.16-.05-2.35-.16-3.56-.11-1.21-.3-2.39-.58-3.53-.28-1.14-.66-2.21-1.15-3.22-.48-1-1.1-1.88-1.86-2.62-.76-.75-1.67-1.34-2.73-1.77-1.06-.43-2.31-.65-3.73-.65s-2.7.22-3.77.65c-1.07.43-1.99,1.02-2.74,1.75-.76.74-1.37,1.61-1.85,2.61-.47,1-.85,2.07-1.12,3.2-.27,1.13-.46,2.31-.57,3.53-.11,1.22-.16,2.42-.16,3.6s.05,2.35.16,3.56c.11,1.21.3,2.39.58,3.52.28,1.13.66,2.2,1.15,3.2.48,1,1.1,1.88,1.86,2.62.76.75,1.66,1.34,2.73,1.78,1.06.44,2.31.66,3.73.66s2.6-.22,3.64-.67c1.04-.45,1.93-1.05,2.69-1.82.76-.76,1.38-1.65,1.88-2.66.5-1.01.9-2.08,1.19-3.22.29-1.13.5-2.3.62-3.49.12-1.2.18-2.36.18-3.48Z"></path><path class="cls-2" d="m432.5,179.84h-27.26v-37.96h10.47v33.14h16.79v4.82Z"></path><path class="cls-2" d="m491.25,160.81c0,1.85-.25,3.6-.74,5.26-.49,1.66-1.18,3.2-2.07,4.6-.89,1.41-1.95,2.68-3.18,3.81-1.23,1.13-2.59,2.1-4.07,2.89-1.49.79-3.08,1.4-4.77,1.83-1.69.43-3.44.65-5.23.65h-16.74v-37.96h16.74c1.79,0,3.53.21,5.22.63,1.69.42,3.27,1.02,4.76,1.81,1.48.78,2.85,1.74,4.09,2.86,1.24,1.13,2.3,2.39,3.19,3.78.89,1.4,1.58,2.93,2.07,4.59.49,1.66.74,3.41.74,5.26Zm-10.63,0c0-2.06-.25-4.01-.75-5.87-.5-1.85-1.28-3.48-2.33-4.89-1.05-1.41-2.39-2.52-4.02-3.35-1.63-.83-3.57-1.24-5.84-1.24h-2.77v30.69h2.77c2.23,0,4.16-.42,5.79-1.25,1.63-.83,2.97-1.96,4.04-3.37,1.06-1.42,1.85-3.05,2.36-4.89.51-1.85.77-3.79.77-5.83Z"></path><path class="cls-2" d="m310.92,115.04h-27.26v-37.96h10.47v33.14h16.79v4.82Z"></path><path class="cls-2" d="m358.13,115.04h-10.47v-37.96h10.47v37.96Z"></path><path class="cls-2" d="m478.13,101.44v-7.36c0-.91-.03-1.88-.09-2.91-.06-1.03-.19-2.05-.4-3.06-.2-1.01-.48-1.97-.84-2.89-.36-.91-.84-1.72-1.45-2.41s-1.34-1.25-2.21-1.66c-.87-.41-1.73-.62-2.94-.62-1.21,0-2.07.21-2.94.62-.87.41-1.61.97-2.21,1.66s-1.09,1.5-1.45,2.41c-.36.91-.64,1.88-.84,2.89-.2,1.01-.33,2.03-.4,3.06-.06,1.03-.09,2-.09,2.91v7.36h15.87Zm-15.87,4.35v9.23h-10.47v-19.3c0-2.76.44-5.33,1.32-7.7.88-2.37,2.12-4.43,3.73-6.18s3.54-3.12,5.8-4.11c2.26-.99,4.78-1.49,7.55-1.49,2.78,0,5.3.5,7.55,1.49,2.26.99,4.19,2.36,5.8,4.11,1.61,1.75,2.85,3.81,3.73,6.18.88,2.37,1.32,4.94,1.32,7.7v19.3h-10.47v-9.23s-15.87,0-15.87,0Z"></path><path class="cls-2" d="m402.67,81.81c-.73.38-1.3.89-1.7,1.53-.4.64-.61,1.44-.61,2.39,0,.76.15,1.4.45,1.92.3.53.7.98,1.2,1.34.5.37,1.07.67,1.7.91.63.24,1.29.44,1.96.62s5.97,1.51,7.13,1.85,2.3.72,3.43,1.17,2.2.96,3.22,1.54c1.02.58,1.92,1.27,2.69,2.07.77.8,1.39,1.72,1.85,2.77.46,1.04.68,2.25.68,3.6,0,1.63-.21,3.08-.62,4.32-.41,1.25-.99,2.33-1.74,3.24-.75.92-1.63,1.68-2.65,2.29-1.02.62-2.13,1.11-3.33,1.48-1.2.37-2.48.63-3.82.79-1.35.16-2.88.24-4.52.24-6.06,0-11.92-2.27-16.69-7.38l4.97-5.04c2.66,5.39,6.44,7.85,11.72,7.85,3.53,0,5.07-.58,5.83-.96.76-.39,1.35-.9,1.78-1.54.43-.64.64-1.44.64-2.41,0-.74-.17-1.37-.5-1.9-.33-.53-.77-.98-1.3-1.36-.54-.38-1.15-.7-1.83-.96-.68-.26-1.38-.49-2.1-.67s-6.03-1.58-7.16-1.92c-1.13-.35-2.23-.73-3.32-1.18-1.09-.44-2.12-.94-3.1-1.52-.97-.57-1.83-1.25-2.57-2.03-.74-.78-1.33-1.69-1.77-2.72-.44-1.03-.66-2.21-.66-3.54,0-1.6.2-3.02.59-4.26.4-1.24.95-2.31,1.68-3.23.72-.91,1.57-1.68,2.56-2.31.98-.62,2.07-1.12,3.24-1.5,1.18-.37,2.43-.65,3.76-.81,1.33-.17,2.68-.25,4.07-.25,6.61,0,12.04,2.5,16.21,7.39l-4.63,4.69c-3.46-6.37-7.66-7.47-11.43-7.47s-5.31.97-5.31.97Z"></path></g></svg>