<svg xmlns="http://www.w3.org/2000/svg" id="Layer_1" data-name="Layer 1" viewBox="0 0 674.452 607.185"><defs><style>      .cls-1 {        fill: #fff;        stroke-width: 0px;      }    </style></defs><path class="cls-1" d="M269.008,242.04c-5.203,2.714-9.112,5.236-13.363,6.858-6.573,2.507-13.393,4.36-20.082,6.569-3.414,1.127-6.7,2.7-10.167,3.595-8.656,2.236-17.318,4.559-26.103,6.157-6.809,1.239-13.808,1.429-20.722,2.097-2.508.242-4.449-.075-5.258-3.098-.377-1.408-2.258-2.365-2.833-3.78-.922-2.27-1.737-4.759-1.69-7.138.014-.693,3.309-2.168,4.765-1.832,5.044,1.163,9.308-.301,13.559-2.651.81-.448,1.944-.569,2.889-.469,13.364,1.411,25.236-3.792,37.363-8.124,5.38-1.922,11.42-2.216,16.546-4.581,10.945-5.049,21.416-11.116,32.229-16.469,5.788-2.866,11.941-5.149,15.523-10.935,4.731-7.64,9.205-15.439,13.784-23.172,6.314-10.664,12.654-21.312,18.925-32,8.504-14.494,16.669-29.195,25.492-43.49,13.313-21.569,26.331-43.297,43.364-62.4,9.04-10.138,17.805-20.446,28.646-28.625,7.777-5.867,15.931-11.527,26.095-12.513,2.078-.202,4.694.171,6.337,1.317,7.252,5.059,11.168,12.292,12.986,20.916,2.364,11.212,2.155,22.374-.605,33.378-1.141,4.55-3.71,8.748-5.684,13.081-7.266,15.951-18.402,29.343-28.776,43.216-18.06,24.15-40.203,44.393-62.769,64.111-8.784,7.676-18.637,14.195-28.352,20.723-12.654,8.502-26.013,15.992-38.342,24.921-5.528,4.003-9.897,10.046-13.719,15.867-6.241,9.504-11.574,19.602-17.348,29.415-3.517,5.977-7.287,11.812-10.572,17.911-.541,1.005.346,3.617,1.4,4.513,8.667,7.371,16.23,15.462,20.943,26.087,3.335,7.52,7.777,14.548,11.173,22.045,1.669,3.686,2.013,7.959,3.083,11.933,2.126,7.891,4.395,15.744,6.493,23.642.87,3.273,1.964,6.607,2.069,9.941.308,9.739.141,19.492.223,29.239.025,2.952.405,5.904.362,8.852-.066,4.581.273,9.3-.713,13.702-1.174,5.241-6.143,4.634-10.138,4.478-4.362-.17-6.656-3.296-6.451-7.234.506-9.685,1.884-19.325,2.327-29.011.285-6.215.08-12.563-.878-18.699-1.622-10.399-3.482-20.824-6.254-30.961-2.114-7.732-5.136-15.389-8.937-22.442-5.213-9.674-9.623-20.005-18.735-27.173-4.687-3.687-5.432-3.755-8.432,1.429-7.987,13.801-16.11,27.524-24.287,41.213-7.084,11.859-14.097,23.77-21.562,35.388-4.614,7.181-10.227,13.713-14.996,20.802-3.846,5.718-7.02,11.883-10.635,17.761-3.789,6.162-7.753,12.217-11.631,18.324-.885,1.393-1.719,2.818-2.599,4.214-3.133,4.969-6.286,9.925-9.412,14.897-4.209,6.694-8.301,13.464-12.63,20.079-3.512,5.366-7.345,10.521-10.954,15.826-5.183,7.617-10.077,15.441-15.492,22.888-5.773,7.94-11.907,15.626-18.105,23.242-1.714,2.107-4.09,3.763-6.385,5.292-6.698,4.466-9.079,12.287-14.216,17.936-5.056,5.56-10.293,10.955-15.373,16.494-5.237,5.71-11.551,9.908-18.641,12.789-17.097,6.947-30.962.817-35.234-15.847-2.596-10.128-1.643-20.356.3-30.546,1.876-9.837,3.266-19.769,5.231-29.587,1.424-7.114,3.233-14.169,5.232-21.147,3.399-11.863,6.79-23.742,10.712-35.438,6.77-20.185,15.789-39.278,28.465-56.55,5.85-7.971,10.565-16.845,16.918-24.359,11.714-13.856,23.718-27.56,36.661-40.246,7.448-7.301,17.064-12.359,25.546-18.642,18.21-13.489,37.662-24.896,58.626-33.388,7.492-3.035,15.911-4.21,24.032-5.141,7.305-.837,14.803.136,22.172-.357,2.395-.16,5.628-1.845,6.806-3.826,7.329-12.32,14.193-24.917,21.163-37.448.355-.638.271-1.521.631-3.818ZM235.001,302.849c-9.077-1.666-17.171-3.203-25.496.322-7.696,3.259-16.225,4.743-23.589,8.551-11.369,5.879-22.092,13.018-33.023,19.729-6.54,4.015-14.255,7.082-19.143,12.609-8.753,9.895-21.854,14.423-29.218,26.077-4.196,6.64-11.403,11.329-16.949,17.185-3.045,3.215-5.654,6.899-8.118,10.599-5.202,7.812-10.139,15.801-15.27,23.662-2.245,3.44-5.124,6.531-6.948,10.165-2.325,4.636-3.679,9.749-5.801,14.5-3.284,7.353-6.793,14.609-10.339,21.841-2.78,5.67-7.788,10.513-6.23,17.733.154.711-.165,1.801-.668,2.334-4.191,4.447-4.488,10.36-5.643,15.784-2.799,13.147-4.432,26.562-7.656,39.592-3.43,13.865-.395,26.775,3.745,39.678.471,1.469,3.226,2.869,5.08,3.118,9.834,1.321,16.422-5.267,22.107-11.308,12.007-12.761,23.145-26.367,34.206-39.978,6.45-7.937,12.077-16.545,18.051-24.868,10.17-14.169,20.754-28.065,30.372-42.6,12.178-18.405,23.488-37.382,35.321-56.018,7.064-11.124,14.698-21.893,21.568-33.132,10.341-16.915,20.321-34.054,30.288-51.195,4.608-7.926,8.822-16.081,13.35-24.382ZM315.989,199.168c.334.265.669.531,1.003.796,1.474-.867,3.05-1.601,4.407-2.623,9.733-7.331,19.571-14.535,29.082-22.146,9.058-7.248,18.174-14.509,26.526-22.534,13.456-12.929,26.949-25.928,39.203-39.967,9.456-10.834,17.496-23.012,25.268-35.166,4.339-6.785,8.168-14.456,9.842-22.24,2.026-9.423,1.735-19.382,2.021-29.121.102-3.49-2.389-5.725-6.009-4.504-3.878,1.308-7.761,2.979-11.169,5.212-4.837,3.168-8.952,7.489-13.913,10.403-4.927,2.893-7.777,7.069-10.994,11.521-6.09,8.429-13.372,15.984-19.833,24.16-4.069,5.15-7.545,10.769-11.287,16.178-3.457,4.996-7.224,9.81-10.279,15.041-2.744,4.696-4.306,10.087-7.089,14.755-7.923,13.292-16.355,26.281-24.296,39.562-7.363,12.316-14.367,24.847-21.473,37.316-.564.99-.684,2.233-1.011,3.358Z"></path><path class="cls-1" d="M393.618,305.592c-1.242.934-2.466,1.893-3.73,2.797-5.226,3.735-10.565,7.32-15.671,11.211-6.433,4.904-13.95,5.133-21.383,4.828-2.555-.105-5.45-2.157-7.417-4.101-3.309-3.272-4.743-1.499-6.998,1.189-6.223,7.417-12.007,15.376-21.059,19.815-5.089,2.495-7.397-1.753-9.53-4.613-1.987-2.665-4.514-6.713.186-9.359,10.072-5.67,16.079-15.274,22.852-23.883,9.93-12.622,18.618-26.218,27.91-39.346,2.673-3.777,5.338-7.624,8.513-10.958,2.087-2.191,4.885-4.134,7.73-5.034,2.147-.68,5.613-.376,7.172.993,2.565,2.253,4.202,5.275,2.627,9.569-4.494,12.25-11.912,22.758-18.843,33.582-1.677,2.62-3.527,5.165-4.866,7.951-.723,1.505-.533,3.449-.755,5.194,1.984-.158,4.154.152,5.922-.55,10.26-4.073,17.687-11.83,25.031-19.686,11.938-12.77,23.925-25.464,32.289-41.076,1.685-3.146,5.037-5.406,6.686-8.562,3.079-5.892,5.881-12.002,8.023-18.285,1.769-5.191,5.166-7.912,10.099-8.86,7.569-1.456,12.517,5.424,9.63,13.954-1.657,4.893-.636,8.923,1.138,13.369,1.505,3.775,2.159,7.892,3.154,11.866,1.44,5.759,2.775,11.544,4.296,17.281.908,3.426,5.18,4.635,8.632,2.602,11.795-6.946,23.515-14.022,35.421-20.773,5.307-3.009,11.245-4.936,16.44-8.104,9.672-5.898,19.016-12.335,28.483-18.569,2.738-1.803,5.479-3.61,8.128-5.539,3.853-2.806,13.612-1.419,15.887,2.654.845,1.513,1.386,4.551.543,5.424-4.492,4.652-4.214,13.012-11.823,15.288-.392.117-.483,2.975.061,4.216,4.3,9.794,12.729,14.016,22.602,15.527,18.499,2.831,36.366-1.071,53.908-6.374,5.776-1.746,11.017-5.003,12.802-11.815.274-1.045,3.399-2.31,4.713-1.899,2.209.691,4.994,2.223,5.83,4.143,3.087,7.095.426,13.535-6.471,17.281-6.624,3.598-13.233,7.23-19.951,10.646-1.563.795-3.528.855-5.328,1.124-10.384,1.556-20.771,4.276-31.164,4.309-14.03.044-27.584-3.834-40.29-10.131-5.573-2.762-6.448-1.937-9.815,3.154-7.85,11.869-16.621,23.051-27.533,32.361-5.414,4.619-10.559,9.607-16.306,13.764-3.66,2.647-8.119,4.295-12.404,5.896-1.043.39-3.18-.822-4.191-1.888-6.674-7.034-7.447-15.199-3.532-23.738,2.594-5.656,5.875-10.995,8.762-16.521.392-.751.285-1.762.41-2.653-.93-.088-2.033-.542-2.757-.198-2.374,1.13-4.479,2.916-6.923,3.795-10.339,3.717-17.455,11.364-25.109,18.796-9.611,9.332-20.56,16.545-35.144,16.971-6.819.199-13.646,3.438-20.271,5.845-4.259,1.547-7.959.973-11.058-1.729-2.604-2.271-6.456-4.125-5.794-8.671.178-1.224.743-2.392,1.13-3.585-.297-.299-.594-.597-.891-.896ZM396.828,302.446c.408.497.816.994,1.223,1.491,8.478-3.949,17.068-7.678,25.405-11.907,8.947-4.538,17.585-9.684,26.505-14.278,3.45-1.777,5.383-3.829,4.099-7.797-1.875-5.791-3.757-11.58-5.735-17.336-1.016-2.956-2.247-5.838-4.055-10.487-13.841,22.881-29.167,42.775-47.441,60.313ZM515.783,287.553c1.069-.266,2.43-.206,3.158-.855,3.205-2.857,6.528-5.669,9.252-8.958,5.557-6.708,10.784-13.691,16.055-20.63.482-.635.305-1.772.652-4.202-12.797,9.791-22.319,20.536-29.117,34.645Z"></path><path class="cls-1" d="M404.009,232.795c-.72,3.004-.964,4.247-4.785,4.164-7.204-.157-11.019-4.62-15.435-8.815-3.214-3.053-6.505-6.029-9.841-8.949-2.682-2.347-1.497-6.756,2.623-9.44,4.818-3.139,15.483.169,18.176,5.353,1.946,3.745,4.576,7.13,6.606,10.837,1.214,2.217,1.861,4.746,2.655,6.849Z"></path></svg>